<mxfile host="Electron" agent="Mozilla/5.0 (Windows NT 10.0; Win64; x64) AppleWebKit/537.36 (KHTML, like Gecko) draw.io/24.7.17 Chrome/128.0.6613.36 Electron/32.0.1 Safari/537.36" version="24.7.17">
  <diagram name="Page-1" id="2YBvvXClWsGukQMizWep">
    <mxGraphModel dx="1003" dy="583" grid="1" gridSize="10" guides="1" tooltips="1" connect="1" arrows="1" fold="1" page="1" pageScale="1" pageWidth="850" pageHeight="1100" math="0" shadow="0">
      <root>
        <mxCell id="0" />
        <mxCell id="1" parent="0" />
        <mxCell id="qaTfJwd2Is5HsQ_uWrR0-1" value="" style="shape=umlLifeline;perimeter=lifelinePerimeter;whiteSpace=wrap;html=1;container=1;dropTarget=0;collapsible=0;recursiveResize=0;outlineConnect=0;portConstraint=eastwest;newEdgeStyle={&quot;curved&quot;:0,&quot;rounded&quot;:0};participant=umlActor;" parent="1" vertex="1">
          <mxGeometry x="150" y="90" width="20" height="560" as="geometry" />
        </mxCell>
        <mxCell id="ICGuzP3V4i8K89JFIkeo-1" value="" style="html=1;points=[[0,0,0,0,5],[0,1,0,0,-5],[1,0,0,0,5],[1,1,0,0,-5]];perimeter=orthogonalPerimeter;outlineConnect=0;targetShapes=umlLifeline;portConstraint=eastwest;newEdgeStyle={&quot;curved&quot;:0,&quot;rounded&quot;:0};" vertex="1" parent="qaTfJwd2Is5HsQ_uWrR0-1">
          <mxGeometry x="5" y="60" width="10" height="460" as="geometry" />
        </mxCell>
        <mxCell id="qaTfJwd2Is5HsQ_uWrR0-2" value="System&lt;br&gt;Interface" style="shape=umlLifeline;perimeter=lifelinePerimeter;whiteSpace=wrap;html=1;container=1;dropTarget=0;collapsible=0;recursiveResize=0;outlineConnect=0;portConstraint=eastwest;newEdgeStyle={&quot;curved&quot;:0,&quot;rounded&quot;:0};" parent="1" vertex="1">
          <mxGeometry x="250" y="90" width="100" height="560" as="geometry" />
        </mxCell>
        <mxCell id="ICGuzP3V4i8K89JFIkeo-2" value="" style="html=1;points=[[0,0,0,0,5],[0,1,0,0,-5],[1,0,0,0,5],[1,1,0,0,-5]];perimeter=orthogonalPerimeter;outlineConnect=0;targetShapes=umlLifeline;portConstraint=eastwest;newEdgeStyle={&quot;curved&quot;:0,&quot;rounded&quot;:0};" vertex="1" parent="qaTfJwd2Is5HsQ_uWrR0-2">
          <mxGeometry x="45" y="80" width="10" height="70" as="geometry" />
        </mxCell>
        <mxCell id="ICGuzP3V4i8K89JFIkeo-12" value="" style="html=1;points=[[0,0,0,0,5],[0,1,0,0,-5],[1,0,0,0,5],[1,1,0,0,-5]];perimeter=orthogonalPerimeter;outlineConnect=0;targetShapes=umlLifeline;portConstraint=eastwest;newEdgeStyle={&quot;curved&quot;:0,&quot;rounded&quot;:0};" vertex="1" parent="qaTfJwd2Is5HsQ_uWrR0-2">
          <mxGeometry x="45" y="200" width="10" height="160" as="geometry" />
        </mxCell>
        <mxCell id="ICGuzP3V4i8K89JFIkeo-32" value="" style="html=1;points=[[0,0,0,0,5],[0,1,0,0,-5],[1,0,0,0,5],[1,1,0,0,-5]];perimeter=orthogonalPerimeter;outlineConnect=0;targetShapes=umlLifeline;portConstraint=eastwest;newEdgeStyle={&quot;curved&quot;:0,&quot;rounded&quot;:0};" vertex="1" parent="qaTfJwd2Is5HsQ_uWrR0-2">
          <mxGeometry x="45" y="400" width="10" height="120" as="geometry" />
        </mxCell>
        <mxCell id="qaTfJwd2Is5HsQ_uWrR0-3" value="UserController" style="shape=umlLifeline;perimeter=lifelinePerimeter;whiteSpace=wrap;html=1;container=1;dropTarget=0;collapsible=0;recursiveResize=0;outlineConnect=0;portConstraint=eastwest;newEdgeStyle={&quot;curved&quot;:0,&quot;rounded&quot;:0};" parent="1" vertex="1">
          <mxGeometry x="400" y="90" width="100" height="560" as="geometry" />
        </mxCell>
        <mxCell id="ICGuzP3V4i8K89JFIkeo-4" value="" style="html=1;points=[[0,0,0,0,5],[0,1,0,0,-5],[1,0,0,0,5],[1,1,0,0,-5]];perimeter=orthogonalPerimeter;outlineConnect=0;targetShapes=umlLifeline;portConstraint=eastwest;newEdgeStyle={&quot;curved&quot;:0,&quot;rounded&quot;:0};" vertex="1" parent="qaTfJwd2Is5HsQ_uWrR0-3">
          <mxGeometry x="45" y="110" width="10" height="40" as="geometry" />
        </mxCell>
        <mxCell id="qaTfJwd2Is5HsQ_uWrR0-4" value="UserRepository" style="shape=umlLifeline;perimeter=lifelinePerimeter;whiteSpace=wrap;html=1;container=1;dropTarget=0;collapsible=0;recursiveResize=0;outlineConnect=0;portConstraint=eastwest;newEdgeStyle={&quot;curved&quot;:0,&quot;rounded&quot;:0};" parent="1" vertex="1">
          <mxGeometry x="550" y="90" width="100" height="560" as="geometry" />
        </mxCell>
        <mxCell id="ICGuzP3V4i8K89JFIkeo-6" value="" style="html=1;points=[[0,0,0,0,5],[0,1,0,0,-5],[1,0,0,0,5],[1,1,0,0,-5]];perimeter=orthogonalPerimeter;outlineConnect=0;targetShapes=umlLifeline;portConstraint=eastwest;newEdgeStyle={&quot;curved&quot;:0,&quot;rounded&quot;:0};" vertex="1" parent="qaTfJwd2Is5HsQ_uWrR0-4">
          <mxGeometry x="45" y="120" width="10" height="30" as="geometry" />
        </mxCell>
        <mxCell id="ICGuzP3V4i8K89JFIkeo-3" value="input credentials" style="html=1;verticalAlign=bottom;endArrow=block;curved=0;rounded=0;" edge="1" parent="1">
          <mxGeometry width="80" relative="1" as="geometry">
            <mxPoint x="165" y="170" as="sourcePoint" />
            <mxPoint x="295" y="170" as="targetPoint" />
          </mxGeometry>
        </mxCell>
        <mxCell id="ICGuzP3V4i8K89JFIkeo-5" value="login()" style="html=1;verticalAlign=bottom;endArrow=block;curved=0;rounded=0;" edge="1" parent="1">
          <mxGeometry width="80" relative="1" as="geometry">
            <mxPoint x="305" y="203" as="sourcePoint" />
            <mxPoint x="445" y="203" as="targetPoint" />
          </mxGeometry>
        </mxCell>
        <mxCell id="ICGuzP3V4i8K89JFIkeo-7" value="login()" style="html=1;verticalAlign=bottom;endArrow=block;curved=0;rounded=0;" edge="1" parent="1">
          <mxGeometry width="80" relative="1" as="geometry">
            <mxPoint x="455" y="214" as="sourcePoint" />
            <mxPoint x="595" y="214" as="targetPoint" />
          </mxGeometry>
        </mxCell>
        <mxCell id="ICGuzP3V4i8K89JFIkeo-8" value="return result" style="html=1;verticalAlign=bottom;endArrow=open;dashed=1;endSize=8;curved=0;rounded=0;exitX=0;exitY=1;exitDx=0;exitDy=-5;exitPerimeter=0;" edge="1" parent="1" source="ICGuzP3V4i8K89JFIkeo-6" target="ICGuzP3V4i8K89JFIkeo-4">
          <mxGeometry relative="1" as="geometry">
            <mxPoint x="595" y="234" as="sourcePoint" />
            <mxPoint x="515" y="234" as="targetPoint" />
          </mxGeometry>
        </mxCell>
        <mxCell id="ICGuzP3V4i8K89JFIkeo-9" value="return result" style="html=1;verticalAlign=bottom;endArrow=open;dashed=1;endSize=8;curved=0;rounded=0;exitX=0;exitY=1;exitDx=0;exitDy=-5;exitPerimeter=0;entryX=1;entryY=1;entryDx=0;entryDy=-5;entryPerimeter=0;" edge="1" parent="1" source="ICGuzP3V4i8K89JFIkeo-4" target="ICGuzP3V4i8K89JFIkeo-2">
          <mxGeometry relative="1" as="geometry">
            <mxPoint x="440" y="230" as="sourcePoint" />
            <mxPoint x="300" y="230" as="targetPoint" />
          </mxGeometry>
        </mxCell>
        <mxCell id="ICGuzP3V4i8K89JFIkeo-10" value="display result" style="html=1;verticalAlign=bottom;endArrow=open;dashed=1;endSize=8;curved=0;rounded=0;exitX=0;exitY=1;exitDx=0;exitDy=-5;exitPerimeter=0;" edge="1" parent="1" source="ICGuzP3V4i8K89JFIkeo-2" target="ICGuzP3V4i8K89JFIkeo-1">
          <mxGeometry relative="1" as="geometry">
            <mxPoint x="290" y="230" as="sourcePoint" />
            <mxPoint x="160" y="230" as="targetPoint" />
          </mxGeometry>
        </mxCell>
        <mxCell id="ICGuzP3V4i8K89JFIkeo-13" value="input bill" style="html=1;verticalAlign=bottom;endArrow=block;curved=0;rounded=0;" edge="1" parent="1">
          <mxGeometry width="80" relative="1" as="geometry">
            <mxPoint x="165" y="293" as="sourcePoint" />
            <mxPoint x="295" y="293" as="targetPoint" />
          </mxGeometry>
        </mxCell>
        <mxCell id="ICGuzP3V4i8K89JFIkeo-14" value="BillController" style="shape=umlLifeline;perimeter=lifelinePerimeter;whiteSpace=wrap;html=1;container=1;dropTarget=0;collapsible=0;recursiveResize=0;outlineConnect=0;portConstraint=eastwest;newEdgeStyle={&quot;curved&quot;:0,&quot;rounded&quot;:0};" vertex="1" parent="1">
          <mxGeometry x="700" y="90" width="100" height="560" as="geometry" />
        </mxCell>
        <mxCell id="ICGuzP3V4i8K89JFIkeo-16" value="" style="html=1;points=[[0,0,0,0,5],[0,1,0,0,-5],[1,0,0,0,5],[1,1,0,0,-5]];perimeter=orthogonalPerimeter;outlineConnect=0;targetShapes=umlLifeline;portConstraint=eastwest;newEdgeStyle={&quot;curved&quot;:0,&quot;rounded&quot;:0};" vertex="1" parent="ICGuzP3V4i8K89JFIkeo-14">
          <mxGeometry x="45" y="220" width="10" height="140" as="geometry" />
        </mxCell>
        <mxCell id="ICGuzP3V4i8K89JFIkeo-15" value="BillRepository" style="shape=umlLifeline;perimeter=lifelinePerimeter;whiteSpace=wrap;html=1;container=1;dropTarget=0;collapsible=0;recursiveResize=0;outlineConnect=0;portConstraint=eastwest;newEdgeStyle={&quot;curved&quot;:0,&quot;rounded&quot;:0};" vertex="1" parent="1">
          <mxGeometry x="850" y="90" width="100" height="560" as="geometry" />
        </mxCell>
        <mxCell id="ICGuzP3V4i8K89JFIkeo-18" value="" style="html=1;points=[[0,0,0,0,5],[0,1,0,0,-5],[1,0,0,0,5],[1,1,0,0,-5]];perimeter=orthogonalPerimeter;outlineConnect=0;targetShapes=umlLifeline;portConstraint=eastwest;newEdgeStyle={&quot;curved&quot;:0,&quot;rounded&quot;:0};" vertex="1" parent="ICGuzP3V4i8K89JFIkeo-15">
          <mxGeometry x="45" y="250" width="10" height="30" as="geometry" />
        </mxCell>
        <mxCell id="ICGuzP3V4i8K89JFIkeo-23" value="" style="html=1;points=[[0,0,0,0,5],[0,1,0,0,-5],[1,0,0,0,5],[1,1,0,0,-5]];perimeter=orthogonalPerimeter;outlineConnect=0;targetShapes=umlLifeline;portConstraint=eastwest;newEdgeStyle={&quot;curved&quot;:0,&quot;rounded&quot;:0};" vertex="1" parent="ICGuzP3V4i8K89JFIkeo-15">
          <mxGeometry x="45" y="330" width="10" height="30" as="geometry" />
        </mxCell>
        <mxCell id="ICGuzP3V4i8K89JFIkeo-17" value="createNewBill()" style="html=1;verticalAlign=bottom;endArrow=block;curved=0;rounded=0;" edge="1" parent="1">
          <mxGeometry width="80" relative="1" as="geometry">
            <mxPoint x="305" y="311" as="sourcePoint" />
            <mxPoint x="745.0000000000002" y="311" as="targetPoint" />
          </mxGeometry>
        </mxCell>
        <mxCell id="ICGuzP3V4i8K89JFIkeo-19" value="createNewBill()" style="html=1;verticalAlign=bottom;endArrow=block;curved=0;rounded=0;" edge="1" parent="1">
          <mxGeometry width="80" relative="1" as="geometry">
            <mxPoint x="755.0000000000002" y="341" as="sourcePoint" />
            <mxPoint x="895" y="341" as="targetPoint" />
          </mxGeometry>
        </mxCell>
        <mxCell id="ICGuzP3V4i8K89JFIkeo-20" value="return result" style="html=1;verticalAlign=bottom;endArrow=open;dashed=1;endSize=8;curved=0;rounded=0;exitX=0;exitY=1;exitDx=0;exitDy=-5;exitPerimeter=0;" edge="1" parent="1" source="ICGuzP3V4i8K89JFIkeo-18" target="ICGuzP3V4i8K89JFIkeo-16">
          <mxGeometry relative="1" as="geometry">
            <mxPoint x="900" y="360" as="sourcePoint" />
            <mxPoint x="760" y="360" as="targetPoint" />
          </mxGeometry>
        </mxCell>
        <mxCell id="ICGuzP3V4i8K89JFIkeo-21" value="return result" style="html=1;verticalAlign=bottom;endArrow=open;dashed=1;endSize=8;curved=0;rounded=0;exitX=0;exitY=1;exitDx=0;exitDy=-5;exitPerimeter=0;" edge="1" parent="1">
          <mxGeometry relative="1" as="geometry">
            <mxPoint x="745.0000000000002" y="365" as="sourcePoint" />
            <mxPoint x="305" y="365" as="targetPoint" />
          </mxGeometry>
        </mxCell>
        <mxCell id="ICGuzP3V4i8K89JFIkeo-22" value="findByAuthor()" style="html=1;verticalAlign=bottom;endArrow=block;curved=0;rounded=0;" edge="1" parent="1">
          <mxGeometry width="80" relative="1" as="geometry">
            <mxPoint x="304" y="399.72" as="sourcePoint" />
            <mxPoint x="744.0000000000002" y="399.72" as="targetPoint" />
          </mxGeometry>
        </mxCell>
        <mxCell id="ICGuzP3V4i8K89JFIkeo-24" value="createNewBill()" style="html=1;verticalAlign=bottom;endArrow=block;curved=0;rounded=0;entryX=0;entryY=0;entryDx=0;entryDy=5;entryPerimeter=0;" edge="1" parent="1" source="ICGuzP3V4i8K89JFIkeo-16" target="ICGuzP3V4i8K89JFIkeo-23">
          <mxGeometry width="80" relative="1" as="geometry">
            <mxPoint x="750.0000000000002" y="424.72" as="sourcePoint" />
            <mxPoint x="890" y="424.72" as="targetPoint" />
          </mxGeometry>
        </mxCell>
        <mxCell id="ICGuzP3V4i8K89JFIkeo-25" value="return result" style="html=1;verticalAlign=bottom;endArrow=open;dashed=1;endSize=8;curved=0;rounded=0;exitX=0;exitY=1;exitDx=0;exitDy=-5;exitPerimeter=0;entryX=1;entryY=1;entryDx=0;entryDy=-5;entryPerimeter=0;" edge="1" parent="1" source="ICGuzP3V4i8K89JFIkeo-23" target="ICGuzP3V4i8K89JFIkeo-16">
          <mxGeometry x="0.0041" relative="1" as="geometry">
            <mxPoint x="890" y="450" as="sourcePoint" />
            <mxPoint x="750" y="450" as="targetPoint" />
            <mxPoint as="offset" />
          </mxGeometry>
        </mxCell>
        <mxCell id="ICGuzP3V4i8K89JFIkeo-26" value="return result" style="html=1;verticalAlign=bottom;endArrow=open;dashed=1;endSize=8;curved=0;rounded=0;exitX=0;exitY=1;exitDx=0;exitDy=-5;exitPerimeter=0;entryX=1;entryY=1;entryDx=0;entryDy=-5;entryPerimeter=0;" edge="1" parent="1" source="ICGuzP3V4i8K89JFIkeo-16" target="ICGuzP3V4i8K89JFIkeo-12">
          <mxGeometry relative="1" as="geometry">
            <mxPoint x="750.0000000000002" y="440" as="sourcePoint" />
            <mxPoint x="310" y="440" as="targetPoint" />
          </mxGeometry>
        </mxCell>
        <mxCell id="ICGuzP3V4i8K89JFIkeo-27" value="display result" style="html=1;verticalAlign=bottom;endArrow=open;dashed=1;endSize=8;curved=0;rounded=0;exitX=0;exitY=1;exitDx=0;exitDy=-5;exitPerimeter=0;" edge="1" parent="1" source="ICGuzP3V4i8K89JFIkeo-12" target="ICGuzP3V4i8K89JFIkeo-1">
          <mxGeometry relative="1" as="geometry">
            <mxPoint x="300" y="440" as="sourcePoint" />
            <mxPoint x="170" y="440" as="targetPoint" />
          </mxGeometry>
        </mxCell>
        <mxCell id="ICGuzP3V4i8K89JFIkeo-28" value="VoteController" style="shape=umlLifeline;perimeter=lifelinePerimeter;whiteSpace=wrap;html=1;container=1;dropTarget=0;collapsible=0;recursiveResize=0;outlineConnect=0;portConstraint=eastwest;newEdgeStyle={&quot;curved&quot;:0,&quot;rounded&quot;:0};" vertex="1" parent="1">
          <mxGeometry x="1000" y="90" width="100" height="560" as="geometry" />
        </mxCell>
        <mxCell id="ICGuzP3V4i8K89JFIkeo-29" value="" style="html=1;points=[[0,0,0,0,5],[0,1,0,0,-5],[1,0,0,0,5],[1,1,0,0,-5]];perimeter=orthogonalPerimeter;outlineConnect=0;targetShapes=umlLifeline;portConstraint=eastwest;newEdgeStyle={&quot;curved&quot;:0,&quot;rounded&quot;:0};" vertex="1" parent="ICGuzP3V4i8K89JFIkeo-28">
          <mxGeometry x="45" y="410" width="10" height="80" as="geometry" />
        </mxCell>
        <mxCell id="ICGuzP3V4i8K89JFIkeo-30" value="VoteRepository" style="shape=umlLifeline;perimeter=lifelinePerimeter;whiteSpace=wrap;html=1;container=1;dropTarget=0;collapsible=0;recursiveResize=0;outlineConnect=0;portConstraint=eastwest;newEdgeStyle={&quot;curved&quot;:0,&quot;rounded&quot;:0};" vertex="1" parent="1">
          <mxGeometry x="1150" y="90" width="100" height="620" as="geometry" />
        </mxCell>
        <mxCell id="ICGuzP3V4i8K89JFIkeo-31" value="" style="html=1;points=[[0,0,0,0,5],[0,1,0,0,-5],[1,0,0,0,5],[1,1,0,0,-5]];perimeter=orthogonalPerimeter;outlineConnect=0;targetShapes=umlLifeline;portConstraint=eastwest;newEdgeStyle={&quot;curved&quot;:0,&quot;rounded&quot;:0};" vertex="1" parent="ICGuzP3V4i8K89JFIkeo-30">
          <mxGeometry x="45" y="430" width="10" height="50" as="geometry" />
        </mxCell>
        <mxCell id="ICGuzP3V4i8K89JFIkeo-33" value="vote bill" style="html=1;verticalAlign=bottom;endArrow=block;curved=0;rounded=0;entryX=0;entryY=0;entryDx=0;entryDy=5;entryPerimeter=0;" edge="1" parent="1" source="ICGuzP3V4i8K89JFIkeo-1" target="ICGuzP3V4i8K89JFIkeo-32">
          <mxGeometry width="80" relative="1" as="geometry">
            <mxPoint x="170" y="500" as="sourcePoint" />
            <mxPoint x="300" y="500" as="targetPoint" />
          </mxGeometry>
        </mxCell>
        <mxCell id="ICGuzP3V4i8K89JFIkeo-34" value="voteFor()" style="html=1;verticalAlign=bottom;endArrow=block;curved=0;rounded=0;entryX=0;entryY=0;entryDx=0;entryDy=5;entryPerimeter=0;" edge="1" parent="1" source="ICGuzP3V4i8K89JFIkeo-32" target="ICGuzP3V4i8K89JFIkeo-29">
          <mxGeometry width="80" relative="1" as="geometry">
            <mxPoint x="310" y="510" as="sourcePoint" />
            <mxPoint x="750.0000000000002" y="510" as="targetPoint" />
          </mxGeometry>
        </mxCell>
        <mxCell id="ICGuzP3V4i8K89JFIkeo-36" value="create()" style="html=1;verticalAlign=bottom;endArrow=block;curved=0;rounded=0;entryX=0;entryY=0;entryDx=0;entryDy=5;entryPerimeter=0;" edge="1" parent="1" source="ICGuzP3V4i8K89JFIkeo-29" target="ICGuzP3V4i8K89JFIkeo-31">
          <mxGeometry width="80" relative="1" as="geometry">
            <mxPoint x="1050" y="530" as="sourcePoint" />
            <mxPoint x="1190" y="530" as="targetPoint" />
          </mxGeometry>
        </mxCell>
        <mxCell id="ICGuzP3V4i8K89JFIkeo-37" value="userHasVoted()" style="html=1;verticalAlign=bottom;endArrow=block;curved=0;rounded=0;" edge="1" parent="1" target="ICGuzP3V4i8K89JFIkeo-31">
          <mxGeometry width="80" relative="1" as="geometry">
            <mxPoint x="1055" y="542" as="sourcePoint" />
            <mxPoint x="1190" y="540" as="targetPoint" />
          </mxGeometry>
        </mxCell>
        <mxCell id="ICGuzP3V4i8K89JFIkeo-38" value="return result" style="html=1;verticalAlign=bottom;endArrow=open;dashed=1;endSize=8;curved=0;rounded=0;exitX=0;exitY=1;exitDx=0;exitDy=-5;exitPerimeter=0;" edge="1" parent="1" source="ICGuzP3V4i8K89JFIkeo-31" target="ICGuzP3V4i8K89JFIkeo-29">
          <mxGeometry x="0.0041" relative="1" as="geometry">
            <mxPoint x="1200" y="570" as="sourcePoint" />
            <mxPoint x="1060" y="570" as="targetPoint" />
            <mxPoint as="offset" />
          </mxGeometry>
        </mxCell>
        <mxCell id="ICGuzP3V4i8K89JFIkeo-39" value="return result" style="html=1;verticalAlign=bottom;endArrow=open;dashed=1;endSize=8;curved=0;rounded=0;exitX=0;exitY=1;exitDx=0;exitDy=-5;exitPerimeter=0;" edge="1" parent="1" source="ICGuzP3V4i8K89JFIkeo-29" target="ICGuzP3V4i8K89JFIkeo-32">
          <mxGeometry x="0.0041" relative="1" as="geometry">
            <mxPoint x="1040" y="570" as="sourcePoint" />
            <mxPoint x="900" y="570" as="targetPoint" />
            <mxPoint as="offset" />
          </mxGeometry>
        </mxCell>
        <mxCell id="ICGuzP3V4i8K89JFIkeo-40" value="display result" style="html=1;verticalAlign=bottom;endArrow=open;dashed=1;endSize=8;curved=0;rounded=0;" edge="1" parent="1">
          <mxGeometry relative="1" as="geometry">
            <mxPoint x="295" y="585" as="sourcePoint" />
            <mxPoint x="165" y="585" as="targetPoint" />
          </mxGeometry>
        </mxCell>
        <mxCell id="ICGuzP3V4i8K89JFIkeo-41" value="MP" style="text;align=center;fontStyle=1;verticalAlign=middle;spacingLeft=3;spacingRight=3;strokeColor=none;rotatable=0;points=[[0,0.5],[1,0.5]];portConstraint=eastwest;html=1;" vertex="1" parent="1">
          <mxGeometry x="120" y="124" width="80" height="26" as="geometry" />
        </mxCell>
      </root>
    </mxGraphModel>
  </diagram>
</mxfile>
